{"title":"Yamapasham Full Movie 2016 pDVDRip Telugu Movies XviD~Hindify.mp","uid":13800993,"size":622568835,"categoryP":"video","categoryS":"movies","magnet":"?xt=urn:btih:e79bb6f19cfa390cc0fc6a7cb5eee1d7e2687132&amp;dn=Yamapasham+Full+Movie+2016+pDVDRip+Telugu+Movies+XviD%7EHindify.mp&amp;tr=udp%3A%2F%2Ftracker.leechers-paradise.org%3A6969&amp;tr=udp%3A%2F%2Fzer0day.ch%3A1337&amp;tr=udp%3A%2F%2Fopen.demonii.com%3A1337&amp;tr=udp%3A%2F%2Ftracker.coppersurfer.tk%3A6969&amp;tr=udp%3A%2F%2Fexodus.desync.com%3A6969","seeders":5,"leechers":0,"uploader":null,"files":1,"time":1457454129,"description":"HINDIFY.CO PRESENTS:\r\n\r\nYamapasham Full Movie 2016 pDVDRip Telugu Movies XviD~Hindify.mp4\r\n\r\nSCREENS:\r\n \nhttp://www.hindify.co/yamapasham-full-movie-watch-online-mp3-songs/\r\n\r\nINFO:\r\n\r\n\r\nFormat : MPEG-4\r\nFormat profile : Base Media\r\nCodec ID : isom (isom/iso2/avc1/mp41)\r\nOverall bit rate : 594 Kbps\r\nWriting application : Lavf57.26.100\r\n\r\nVideo\r\nID : 1\r\nFormat : AVC\r\nFormat/Info : Advanced Video Codec\r\nFormat profile :   \r\nFormat settings, CABAC : No\r\nFormat settings, ReFrames : 4 frames\r\nCodec ID : avc1\r\nCodec ID/Info : Advanced Video Coding\r\nBit rate : 458 Kbps\r\nWidth : 640 pixels\r\nHeight : 272 pixels\r\nDisplay aspect ratio : 2.35:1\r\nFrame rate mode : Constant\r\nFrame rate : 25.000 fps\r\nColor space : YUV\r\nChroma subsampling : 4:2:0\r\nBit depth : 8 bits\r\nScan type : Progressive\r\nBits/(Pixel*Frame) : 0.105\r\nStream size : 430 MiB (77%)\r\nWriting library : x264 core 148 r2665 a01e339\r\nEncoding settings : cabac=0 / ref=3 / deblock=0:0:0 / analyse=0x3:0x113 / me=hex / subme=7 / psy=1 / psy_rd=1.00:0.00 / mixed_ref=1 / me_range=16 / chroma_me=1 / trellis=1 / 8x8dct=1 / cqm=0 / deadzone=21,11 / fast_pskip=1 / chroma_qp_offset=-2 / threads=40 / lookahead_threads=2 / sliced_threads=0 / nr=0 / decimate=1 / interlaced=0 / bluray_compat=0 / constrained_intra=0 / bframes=3 / b_pyramid=2 / b_adapt=1 / b_bias=0 / direct=1 / weightb=0 / open_gop=0 / weightp=0 / keyint=250 / keyint_min=25 / scenecut=40 / intra_refresh=0 / rc_lookahead=40 / rc=crf / mbtree=1 / crf=23.0 / qcomp=0.60 / qpmin=0 / qpmax=69 / qpstep=4 / ip_ratio=1.40 / aq=1:1.00\r\n\r\nAudio\r\nID : 2\r\nFormat : AAC\r\nFormat/Info : Advanced Audio Codec\r\nFormat profile : LC\r\nCodec ID : 40\r\nBit rate mode : Constant\r\nBit rate : 130 Kbps\r\nChannel(s) : 2 channels\r\nChannel positions : Front: L R\r\nSampling rate : 48.0 KHz\r\nFrame rate : 46.875 fps (1024 spf)\r\nCompression mode : Lossy\r\nStream size : 122 MiB (22%)\r\nDefault : Yes\r\nAlternate group : 1","torrent":{"xt":"urn:btih:e79bb6f19cfa390cc0fc6a7cb5eee1d7e2687132","amp;dn":"Yamapasham+Full+Movie+2016+pDVDRip+Telugu+Movies+XviD%7EHindify.mp","amp;tr":["udp%3A%2F%2Ftracker.leechers-paradise.org%3A6969","udp%3A%2F%2Fzer0day.ch%3A1337","udp%3A%2F%2Fopen.demonii.com%3A1337","udp%3A%2F%2Ftracker.coppersurfer.tk%3A6969","udp%3A%2F%2Fexodus.desync.com%3A6969"],"infoHash":"e79bb6f19cfa390cc0fc6a7cb5eee1d7e2687132","infoHashBuffer":{"type":"Buffer","data":[231,155,182,241,156,250,57,12,192,252,106,124,181,238,225,215,226,104,113,50]},"announce":[],"urlList":[]}}